<svg width="18" height="18" viewBox="0 0 18 18" fill="none" xmlns="http://www.w3.org/2000/svg">
<path d="M14.4 3.1499L3.6 3.1499C3.24196 3.1499 2.89858 3.29213 2.64541 3.54531C2.39223 3.79848 2.25 4.14186 2.25 4.4999L2.25 10.7999C2.25 11.1579 2.39223 11.5013 2.64541 11.7545C2.89858 12.0077 3.24196 12.1499 3.6 12.1499H5.85L5.85 15.7499L10.0503 12.1499L14.4 12.1499C14.758 12.1499 15.1014 12.0077 15.3546 11.7545C15.6078 11.5013 15.75 11.1579 15.75 10.7999L15.75 4.4999C15.75 4.14186 15.6078 3.79848 15.3546 3.54531C15.1014 3.29213 14.758 3.1499 14.4 3.1499Z" stroke="#171A1F" stroke-width="0.9" stroke-linecap="round" stroke-linejoin="round"/>
</svg>
