<svg width="28" height="28" viewBox="0 0 28 28" fill="none" xmlns="http://www.w3.org/2000/svg">
<path d="M20 17L20 22C20 22.5304 19.7893 23.0391 19.4142 23.4142C19.0391 23.7893 18.5304 24 18 24L6 24C5.46957 24 4.96086 23.7893 4.58579 23.4142C4.21071 23.0391 4 22.5304 4 22L4 12C4 11.4696 4.21071 10.9609 4.58579 10.5858C4.96086 10.2107 5.46957 10 6 10L9 10" stroke="#00508F" stroke-width="2.4" stroke-miterlimit="10" stroke-linecap="square"/>
<path d="M11 18C11 15.3478 12.0536 12.8043 13.9289 10.9289C15.8043 9.05357 18.3478 8 21 8L24 8" stroke="#00508F" stroke-width="2.4" stroke-miterlimit="10"/>
<path d="M20 12L24 8L20 4" stroke="#00508F" stroke-width="2.4" stroke-miterlimit="10" stroke-linecap="square"/>
</svg>
