<svg width="24" height="24" viewBox="0 0 24 24" fill="none" xmlns="http://www.w3.org/2000/svg">
<path d="M21.5999 12C21.5996 10.1655 21.0737 8.36941 20.0844 6.82448C19.095 5.27955 17.6838 4.05045 16.0176 3.28267C14.3514 2.5149 12.5002 2.2406 10.683 2.49227C8.86578 2.74393 7.15874 3.511 5.76395 4.70269C4.36915 5.89437 3.34502 7.46075 2.81279 9.21639C2.28055 10.972 2.26251 12.8434 2.7608 14.609C3.25909 16.3746 4.25283 17.9604 5.62439 19.1788C6.99595 20.3971 8.68789 21.197 10.4999 21.4836L10.4999 14.775H8.0627V12H10.4999V9.885C10.4999 7.479 11.9333 6.15 14.1257 6.15C14.8457 6.15998 15.564 6.22255 16.2749 6.3372V8.7H15.0641C14.8578 8.6726 14.6479 8.69197 14.4501 8.7567C14.2523 8.82142 14.0716 8.92983 13.9213 9.07389C13.7711 9.21796 13.6552 9.39398 13.5823 9.58891C13.5093 9.78385 13.4812 9.9927 13.4999 10.2V12H16.1627L15.7367 14.775H13.4999L13.4999 21.4836C15.7582 21.1264 17.8148 19.9749 19.2997 18.2363C20.7846 16.4978 21.6003 14.2864 21.5999 12Z" fill="#2E6FE8"/>
</svg>
