<svg width="24" height="24" viewBox="0 0 24 24" fill="none" xmlns="http://www.w3.org/2000/svg">
<path d="M11.143 12.8572C8.72243 12.8572 6.57528 13.404 5.16443 13.8797C4.123 14.232 3.42871 15.2135 3.42871 16.3132L3.42871 19.7143C3.42871 19.7143 11.9641 19.7143 12.0001 19.7143" stroke="white" stroke-width="2.05714" stroke-miterlimit="10"/>
<path d="M11.1426 12.8571C8.77608 12.8571 6.85693 10.0808 6.85693 7.71427V6.85713C6.85693 4.49055 8.77608 2.57141 11.1426 2.57141C13.5092 2.57141 15.4284 4.49055 15.4284 6.85713V7.71427C15.4284 10.0808 13.5092 12.8571 11.1426 12.8571Z" stroke="white" stroke-width="2.05714" stroke-miterlimit="10" stroke-linecap="square"/>
<path d="M20.8807 15.1122C20.0467 14.2885 18.6547 14.4231 17.9999 15.3977C17.3441 14.4222 15.9521 14.2894 15.119 15.1122C14.3887 15.8339 14.3887 17.0039 15.119 17.7248L17.9999 20.5714L20.8807 17.7248C21.611 17.0039 21.611 15.8339 20.8807 15.1122Z" stroke="white" stroke-width="2.05714" stroke-miterlimit="10" stroke-linecap="square"/>
</svg>
