<svg width="16" height="16" viewBox="0 0 16 16" fill="none" xmlns="http://www.w3.org/2000/svg">
<path d="M9.6 2L3.2 2C2.88174 2 2.57652 2.12643 2.35147 2.35147C2.12643 2.57652 2 2.88174 2 3.2L2 7.2C2 7.51826 2.12643 7.82348 2.35147 8.04853C2.57652 8.27357 2.88174 8.4 3.2 8.4H4.4V10.8L6.8 8.4L9.6 8.4C9.91826 8.4 10.2235 8.27357 10.4485 8.04853C10.6736 7.82348 10.8 7.51826 10.8 7.2L10.8 3.2C10.8 2.88174 10.6736 2.57652 10.4485 2.35147C10.2235 2.12643 9.91826 2 9.6 2Z" stroke="#9095A1" stroke-width="0.8" stroke-linecap="round" stroke-linejoin="round"/>
<path d="M6.7998 11.6H9.1998L11.5998 14V11.6L12.7998 11.6C13.1181 11.6 13.4233 11.4735 13.6483 11.2485C13.8734 11.0234 13.9998 10.7182 13.9998 10.4V6.39995C13.9998 6.08169 13.8734 5.77647 13.6483 5.55142C13.4233 5.32638 13.1181 5.19995 12.7998 5.19995H12.3998" stroke="#9095A1" stroke-width="0.8" stroke-linecap="round" stroke-linejoin="round"/>
</svg>
