<svg width="16" height="16" viewBox="0 0 16 16" fill="none" xmlns="http://www.w3.org/2000/svg">
<path d="M4.4 7.59998L2 7.59998L2 14H4.4L4.4 7.59998Z" stroke="#9095A1" stroke-width="0.8" stroke-linecap="round" stroke-linejoin="round"/>
<path d="M6 14L11.52 14C11.884 13.9999 12.237 13.8758 12.521 13.648C12.8049 13.4203 13.0026 13.1025 13.0816 12.7472L13.9704 8.7472C14.0224 8.51306 14.0212 8.27022 13.9667 8.03664C13.9122 7.80305 13.806 7.5847 13.6557 7.39774C13.5055 7.21078 13.3151 7.05998 13.0987 6.95652C12.8823 6.85305 12.6455 6.79956 12.4056 6.8L9.2 6.8L9.2 3.6C9.2 3.17565 9.03143 2.76869 8.73137 2.46863C8.43131 2.16857 8.02435 2 7.6 2L6 6.8" stroke="#9095A1" stroke-width="0.8" stroke-linecap="round" stroke-linejoin="round"/>
</svg>
