<svg width="1197" height="320" viewBox="0 0 1197 320" fill="none" xmlns="http://www.w3.org/2000/svg">
<g clip-path="url(#clip0_101_2335)">
<mask id="mask0_101_2335" style="mask-type:luminance" maskUnits="userSpaceOnUse" x="0" y="-242" width="1197" height="805">
<path d="M1196.87 -241.264H0.130127V562.464H1196.87V-241.264Z" fill="white"/>
</mask>
<g mask="url(#mask0_101_2335)">
<path d="M1196.87 -241.264H0.130127V562.464H1196.87V-241.264Z" fill="#F0F9FF"/>
</g>
<mask id="mask1_101_2335" style="mask-type:luminance" maskUnits="userSpaceOnUse" x="0" y="-242" width="1197" height="805">
<path d="M1196.79 -241.32H0.0498047V562.407H1196.79V-241.32Z" fill="white"/>
</mask>
<g mask="url(#mask1_101_2335)">
<path d="M113.204 210.314L152.57 145.283L204.633 168.235V175.887L172.886 226.89L128.443 205.214L119.553 215.414L113.204 210.314Z" fill="#F8F9FA"/>
</g>
<mask id="mask2_101_2335" style="mask-type:luminance" maskUnits="userSpaceOnUse" x="0" y="-242" width="1197" height="805">
<path d="M1196.77 -241.126H0.0339355V562.601H1196.77V-241.126Z" fill="white"/>
</mask>
<g mask="url(#mask2_101_2335)">
<path d="M118.261 9.03915L260.482 -240.886H-9.99219V1.38791L73.8167 30.7172L118.261 9.03915Z" fill="#F8F9FA"/>
</g>
<mask id="mask3_101_2335" style="mask-type:luminance" maskUnits="userSpaceOnUse" x="0" y="-242" width="1197" height="805">
<path d="M1196.9 -241.23H0.15918V562.497H1196.9V-241.23Z" fill="white"/>
</mask>
<g mask="url(#mask3_101_2335)">
<path d="M113.307 56.1138L277.114 -240.99H294.893L228.862 -117.303L306.322 -77.7735C317.496 -72.6727 326.216 -79.8983 329.178 -84.149L348.227 -128.779L358.384 -123.679L335.528 -73.9485C328.416 -60.6881 312.248 -63.3223 305.051 -66.2972L221.242 -108.376L164.099 -2.54126L181.877 8.93506L358.384 49.7383L388.86 -84.149H397.749L364.734 63.7651L176.798 16.5852L160.291 8.93506L127.276 67.5902L94.2593 96.9183L847.271 456.505C863.524 462.625 870.974 457.356 872.666 453.955L956.475 354.495C966.634 349.394 970.02 358.32 970.443 363.421L895.524 453.955L1008.54 521.536L1004.73 530.462L890.444 457.78C890.444 457.78 872.666 484.558 838.381 473.082L807.905 541.939L774.889 566.166L752.033 563.615L739.335 550.865L720.286 566.166L703.779 563.615L732.985 541.939L715.208 521.536L678.382 566.166H663.144L707.588 511.336L687.272 484.558L697.43 479.456L764.732 559.79L800.285 530.462L829.492 466.706L75.2118 107.12L-9.86694 260.135V226.982L58.704 100.744L-9.86694 67.5902V49.7383L79.0213 91.8174L113.307 56.1138Z" fill="#F8F9FA" stroke="#DAD8E5" stroke-width="11.305" stroke-linecap="round"/>
</g>
<mask id="mask4_101_2335" style="mask-type:luminance" maskUnits="userSpaceOnUse" x="0" y="-242" width="1197" height="805">
<path d="M1196.81 -241.349H0.0661621V562.378H1196.81V-241.349Z" fill="white"/>
</mask>
<g mask="url(#mask4_101_2335)">
<path d="M277.027 257.467C260.774 243.186 270.254 222.613 277.027 214.112C294.296 214.112 330.784 231.964 346.869 240.89C362.107 249.051 353.219 265.542 346.869 272.769C341.79 281.949 327.822 285.095 321.472 285.52L277.027 257.467Z" fill="#F8F9FA"/>
</g>
<mask id="mask5_101_2335" style="mask-type:luminance" maskUnits="userSpaceOnUse" x="0" y="-242" width="1197" height="805">
<path d="M1196.76 -241.447H0.0187988V562.28H1196.76V-241.447Z" fill="white"/>
</mask>
<g mask="url(#mask5_101_2335)">
<path d="M349.362 307.099C351.393 309.139 368.831 271.395 377.298 252.268L387.455 258.643L354.441 323.675L275.71 277.769L243.965 332.6L301.108 367.03L293.489 374.68L235.077 342.802L136.028 525.144C122.823 538.406 105.13 535.77 97.9342 532.796L26.8237 486.89L-11.2712 475.414V460.114L30.6333 475.414L90.3153 514.944C111.649 526.164 123.754 519.619 127.141 514.944L156.347 469.038L72.5377 421.859L67.4585 405.282L147.458 282.87L235.077 328.776L266.822 272.669L198.251 230.59L204.6 222.939C252.008 250.143 347.33 305.057 349.362 307.099Z" fill="#F8F9FA" stroke="#DAD8E5" stroke-width="11.305" stroke-linecap="round"/>
</g>
<mask id="mask6_101_2335" style="mask-type:luminance" maskUnits="userSpaceOnUse" x="0" y="-242" width="1197" height="805">
<path d="M1196.82 -241.442H0.0783691V562.285H1196.82V-241.442Z" fill="white"/>
</mask>
<g mask="url(#mask6_101_2335)">
<path d="M151.323 296.903L228.782 337.706L160.211 456.293L81.4817 412.938V405.288L151.323 296.903Z" fill="#F0F9FF"/>
</g>
<mask id="mask7_101_2335" style="mask-type:luminance" maskUnits="userSpaceOnUse" x="0" y="-242" width="1197" height="805">
<path d="M1196.81 -241.383H0.0739746V562.344H1196.81V-241.383Z" fill="white"/>
</mask>
<g mask="url(#mask7_101_2335)">
<path d="M379.89 298.235L400.207 328.838L388.779 335.214L395.128 364.541L416.714 379.843H428.143L409.096 285.484L388.779 275.282L379.89 298.235Z" fill="#F8F9FA"/>
</g>
<mask id="mask8_101_2335" style="mask-type:luminance" maskUnits="userSpaceOnUse" x="0" y="-242" width="1197" height="805">
<path d="M1196.86 -241.481H0.123535V562.246H1196.86V-241.481Z" fill="white"/>
</mask>
<g mask="url(#mask8_101_2335)">
<path d="M430.73 393.772L480.252 301.964H490.412L444.697 393.772V419.275H525.967L588.188 458.804V562.09H579.299V465.179L525.967 433.302L444.697 426.926L434.539 565.916L357.078 562.09L430.73 419.275V393.772Z" fill="#F8F9FA" stroke="#DAD8E5" stroke-width="11.305" stroke-linecap="round"/>
</g>
<mask id="mask9_101_2335" style="mask-type:luminance" maskUnits="userSpaceOnUse" x="0" y="-242" width="1198" height="805">
<path d="M1197 -241.344H0.26416V562.383H1197V-241.344Z" fill="white"/>
</mask>
<g mask="url(#mask9_101_2335)">
<path d="M1088.65 223.042C1050.13 263.421 972.336 344.945 969.288 348.005L974.367 351.83L1088.65 238.344L1126.75 275.323L1081.03 336.529L983.256 351.83L979.447 362.031L1078.49 348.005L1208.01 465.316V452.565L1088.65 340.354L1141.98 275.323L1088.65 223.042Z" fill="#F8F9FA" stroke="#DAD8E5" stroke-width="11.305" stroke-linecap="round"/>
</g>
<mask id="mask10_101_2335" style="mask-type:luminance" maskUnits="userSpaceOnUse" x="0" y="-242" width="1197" height="805">
<path d="M1196.88 -241.176H0.139893V562.551H1196.88V-241.176Z" fill="white"/>
</mask>
<g mask="url(#mask10_101_2335)">
<path d="M541.224 -94.2962L410.432 -242.211H428.209L487.892 -174.629L593.288 -256.238L677.097 -174.629L701.224 -188.656L707.572 -233.285H713.922L707.572 -188.656L612.336 -108.322H593.288L523.446 -188.656L496.78 -163.153L688.525 45.9678L764.716 -30.5391L688.525 -122.35L694.875 -137.651L743.128 -174.629H759.636L844.714 -76.4444L694.875 57.4441L764.716 137.776L786.302 144.153L872.651 65.0954H884.079L791.381 158.179L837.096 210.459L815.508 198.983C792.652 221.511 746.176 266.565 743.128 266.565C740.08 266.565 796.037 281.866 824.398 289.517L915.826 278.041L989.476 190.058L998.365 210.459L924.714 294.617H791.381L633.922 252.538V246.163L729.16 266.565L809.159 190.058L776.143 158.179H759.636L694.875 210.459H677.097L640.272 158.179L713.922 99.5232L575.511 -53.4929L566.621 -35.6411L581.859 -17.7893L570.432 -10.138L556.463 -30.5391V-47.1174L570.432 -63.6934L550.113 -84.0945L467.574 142.878L581.859 167.105V183.681L419.321 142.878V135.227L454.876 142.878L541.224 -94.2962Z" fill="#F8F9FA" stroke="#DAD8E5" stroke-width="11.305" stroke-linecap="round"/>
</g>
<mask id="mask11_101_2335" style="mask-type:luminance" maskUnits="userSpaceOnUse" x="0" y="-242" width="1197" height="805">
<path d="M1196.94 -241.249H0.199219V562.478H1196.94V-241.249Z" fill="white"/>
</mask>
<g mask="url(#mask11_101_2335)">
<path d="M1213.03 142.805L934.933 -122.422L941.282 -130.073L1230.81 142.805L1177.48 211.662L1147 206.562L1119.06 184.884V173.407L1154.61 195.084H1173.66L1213.03 142.805Z" fill="#F8F9FA" stroke="#DAD8E5" stroke-width="11.305" stroke-linecap="round"/>
</g>
</g>
<defs>
<clipPath id="clip0_101_2335">
<rect width="1197" height="320" fill="white"/>
</clipPath>
</defs>
</svg>
