<svg width="16" height="16" viewBox="0 0 16 16" fill="none" xmlns="http://www.w3.org/2000/svg">
<path d="M6 7.59998L6 11.6" stroke="#6F7787" stroke-width="0.8" stroke-linecap="round" stroke-linejoin="round"/>
<path d="M10 7.59998L10 11.6" stroke="#6F7787" stroke-width="0.8" stroke-linecap="round" stroke-linejoin="round"/>
<path d="M4.39999 9.59998L11.6 9.59998" stroke="#6F7787" stroke-width="0.8" stroke-linecap="round" stroke-linejoin="round"/>
<path d="M2 6L14 6" stroke="#6F7787" stroke-width="0.8" stroke-linecap="round" stroke-linejoin="round"/>
<path d="M12.8 3.59998L3.2 3.59998C2.88174 3.59998 2.57652 3.7264 2.35147 3.95145C2.12643 4.17649 2 4.48172 2 4.79998L2 12C2 12.3182 2.12643 12.6235 2.35147 12.8485C2.57652 13.0735 2.88174 13.2 3.2 13.2L12.8 13.2C13.1183 13.2 13.4235 13.0735 13.6485 12.8485C13.8736 12.6235 14 12.3182 14 12L14 4.79998C14 4.48172 13.8736 4.17649 13.6485 3.95145C13.4235 3.7264 13.1183 3.59998 12.8 3.59998Z" stroke="#6F7787" stroke-width="0.8" stroke-linecap="round" stroke-linejoin="round"/>
<path d="M5.20001 2V3.6" stroke="#6F7787" stroke-width="0.8" stroke-linecap="round" stroke-linejoin="round"/>
<path d="M10.8 2V3.6" stroke="#6F7787" stroke-width="0.8" stroke-linecap="round" stroke-linejoin="round"/>
</svg>
