<svg width="26" height="26" viewBox="0 0 26 26" fill="none" xmlns="http://www.w3.org/2000/svg">
<path d="M4.55005 21.4502V22.7502C4.55005 23.1402 4.81005 23.4002 5.20005 23.4002L20.8 23.4002C21.19 23.4002 21.45 23.1402 21.45 22.7502V21.4502L4.55005 21.4502Z" fill="#00508F"/>
<path d="M16.8999 3.64014V7.15014L20.4099 7.15014L16.8999 3.64014Z" fill="#00508F"/>
<path d="M9.68505 14.625H9.42505V15.47H9.62005C9.75005 15.47 9.88005 15.405 10.01 15.34C10.14 15.275 10.14 15.145 10.14 15.015C10.14 14.755 10.01 14.625 9.68505 14.625Z" fill="#00508F"/>
<path d="M13 14.625H12.74V16.705H12.935C13.26 16.705 13.455 16.64 13.585 16.445C13.715 16.25 13.78 15.99 13.78 15.665C13.78 15.34 13.715 15.08 13.585 14.885C13.455 14.69 13.325 14.625 13 14.625Z" fill="#00508F"/>
<path d="M22.7501 11.0501H21.4501L21.4501 8.4501H16.2501C15.8601 8.4501 15.6001 8.1901 15.6001 7.8001L15.6001 2.6001L5.2001 2.6001C4.8101 2.6001 4.5501 2.8601 4.5501 3.2501L4.5501 11.0501H3.2501C2.8601 11.0501 2.6001 11.3101 2.6001 11.7001L2.6001 19.5001C2.6001 19.8901 2.8601 20.1501 3.2501 20.1501L22.7501 20.1501C23.1401 20.1501 23.4001 19.8901 23.4001 19.5001V11.7001C23.4001 11.3101 23.1401 11.0501 22.7501 11.0501ZM10.7901 15.9901C10.5301 16.1851 10.2051 16.3151 9.7501 16.3151H9.4901V17.5501H8.4501V13.8451H9.7501C10.2051 13.8451 10.5951 13.9751 10.7901 14.1701C10.9851 14.3651 11.1151 14.6901 11.1151 15.0151C11.1151 15.4051 11.0501 15.7301 10.7901 15.9901ZM14.3651 17.0301C14.0401 17.3551 13.5201 17.5501 12.9351 17.5501H11.7651V13.8451H13.0651C13.6501 13.8451 14.1051 13.9751 14.4301 14.3001C14.7551 14.6251 14.8851 15.0151 14.8851 15.6001C14.8851 16.2501 14.6901 16.7051 14.3651 17.0301ZM17.7451 14.6251H16.5101V15.3401H17.6151V16.1201H16.5101V17.5501H15.5351V13.8451H17.7451V14.6251Z" fill="#00508F"/>
</svg>
