<svg width="16" height="16" viewBox="0 0 16 16" fill="none" xmlns="http://www.w3.org/2000/svg">
<path d="M2 2L4.4 2L4.4 8C4.4 8.6624 4.9376 9.2 5.6 9.2L11.5352 9.2C12.052 9.2 12.5104 8.8696 12.6736 8.3792L14 4.4L4.4 4.4" stroke="#9095A1" stroke-width="0.8" stroke-linecap="round" stroke-linejoin="round"/>
<path d="M4.8001 14.0001C5.46284 14.0001 6.0001 13.4628 6.0001 12.8001C6.0001 12.1374 5.46284 11.6001 4.8001 11.6001C4.13736 11.6001 3.6001 12.1374 3.6001 12.8001C3.6001 13.4628 4.13736 14.0001 4.8001 14.0001Z" stroke="#9095A1" stroke-width="0.8" stroke-linecap="round" stroke-linejoin="round"/>
<path d="M12 14.0001C12.6628 14.0001 13.2 13.4628 13.2 12.8001C13.2 12.1374 12.6628 11.6001 12 11.6001C11.3373 11.6001 10.8 12.1374 10.8 12.8001C10.8 13.4628 11.3373 14.0001 12 14.0001Z" stroke="#9095A1" stroke-width="0.8" stroke-linecap="round" stroke-linejoin="round"/>
</svg>
