<svg width="36" height="36" viewBox="0 0 36 36" fill="none" xmlns="http://www.w3.org/2000/svg">
<path d="M18.6813 3.61621C10.7739 3.24631 3.99236 9.38701 3.61616 17.3178C3.24086 25.2486 9.38786 32.0076 17.3196 32.3838C17.55 32.3955 17.7786 32.4 18.0081 32.4C25.6374 32.4 32.0184 26.3808 32.3847 18.6813C32.7591 10.7505 26.6121 3.99241 18.6813 3.61621ZM17.4042 30.5856C14.3766 30.4416 11.6478 29.2347 9.55886 27.3447C10.044 25.2432 11.5884 24.4548 13.7052 23.7492C15.0282 23.3082 15.669 22.1895 15.9822 21.2049C14.0013 20.403 12.6 18.4635 12.6 16.2L12.6 14.4C12.6 11.4219 15.0219 9.00001 18 9.00001C20.9781 9.00001 23.4 11.4219 23.4 14.4V16.2C23.4 18.4644 21.9978 20.4048 20.0169 21.2058C20.3301 22.1904 20.9727 23.3082 22.2957 23.7492C24.4125 24.4548 25.9452 25.2522 26.4267 27.3555C24.0417 29.5074 20.8458 30.7566 17.4042 30.5856Z" fill="#6D31ED"/>
</svg>
