<svg width="20" height="20" viewBox="0 0 20 20" fill="none" xmlns="http://www.w3.org/2000/svg">
<path d="M10.0001 1.66675C6.77508 1.66675 4.16675 4.27508 4.16675 7.50008C4.16675 11.8751 10.0001 18.3334 10.0001 18.3334C10.0001 18.3334 15.8334 11.8751 15.8334 7.50008C15.8334 4.27508 13.2251 1.66675 10.0001 1.66675ZM10.0001 9.58341C9.44755 9.58341 8.91764 9.36392 8.52694 8.97322C8.13624 8.58252 7.91675 8.05262 7.91675 7.50008C7.91675 6.94755 8.13624 6.41764 8.52694 6.02694C8.91764 5.63624 9.44755 5.41675 10.0001 5.41675C10.5526 5.41675 11.0825 5.63624 11.4732 6.02694C11.8639 6.41764 12.0834 6.94755 12.0834 7.50008C12.0834 8.05262 11.8639 8.58252 11.4732 8.97322C11.0825 9.36392 10.5526 9.58341 10.0001 9.58341Z" fill="white"/>
</svg>
