<svg width="32" height="32" viewBox="0 0 32 32" fill="none" xmlns="http://www.w3.org/2000/svg">
<path d="M19.7162 14.1412C19.6419 14.0327 19.5897 13.9107 19.5626 13.782C19.5355 13.6533 19.5341 13.5206 19.5583 13.3914C19.5826 13.2622 19.6321 13.139 19.704 13.0289C19.776 12.9188 19.8689 12.824 19.9775 12.7499L28.435 6.96243C28.6541 6.8269 28.917 6.78114 29.1689 6.83467C29.4209 6.8882 29.6425 7.03691 29.7876 7.24979C29.9326 7.46268 29.9899 7.72332 29.9475 7.9774C29.9051 8.23149 29.7663 8.45941 29.56 8.61368L21.1012 14.4012C20.9355 14.5155 20.7388 14.5765 20.5375 14.5762C20.3756 14.5756 20.2163 14.5356 20.0733 14.4599C19.9302 14.3841 19.8077 14.2747 19.7162 14.1412ZM29.825 24.7774C29.6751 24.9962 29.4445 25.1465 29.1838 25.1953C28.9232 25.244 28.6538 25.1873 28.435 25.0374L17 17.2124L11.6862 20.8474C12.0917 21.877 12.1036 23.0199 11.7196 24.0577C11.3357 25.0954 10.5828 25.9554 9.6049 26.4732C8.62699 26.9909 7.49259 27.1303 6.41845 26.8645C5.3443 26.5988 4.40573 25.9466 3.78206 25.0325C3.15839 24.1185 2.89335 23.0068 3.03758 21.9097C3.18181 20.8126 3.7252 19.8071 4.56392 19.0853C5.40265 18.3636 6.4779 17.9761 7.58423 17.997C8.69056 18.0179 9.7504 18.4457 10.5612 19.1987L15.2288 15.9999L10.555 12.8012C9.74689 13.5503 8.69119 13.9754 7.58949 13.9955C6.48779 14.0156 5.41729 13.6292 4.58241 12.9101C3.74752 12.191 3.20676 11.1896 3.06338 10.097C2.91999 9.00453 3.18404 7.89748 3.80509 6.98729C4.42614 6.07711 5.36069 5.42756 6.43026 5.16269C7.49983 4.89782 8.6295 5.03618 9.60353 5.55136C10.5776 6.06654 11.3277 6.92243 11.7107 7.9556C12.0938 8.98877 12.0828 10.1268 11.68 11.1524L29.555 23.3862C29.6643 23.4596 29.758 23.5539 29.8308 23.6637C29.9035 23.7734 29.9539 23.8965 29.979 24.0257C30.0041 24.155 30.0034 24.2879 29.977 24.4169C29.9505 24.5459 29.8989 24.6684 29.825 24.7774ZM10 22.4999C10.0001 21.9215 9.79969 21.361 9.43285 20.9138C9.06601 20.4666 8.55547 20.1605 7.98821 20.0475C7.42095 19.9346 6.83208 20.0218 6.32193 20.2944C5.81178 20.5669 5.41191 21.0079 5.19048 21.5423C4.96904 22.0766 4.93972 22.6712 5.10752 23.2247C5.27532 23.7782 5.62986 24.2564 6.11073 24.5778C6.59159 24.8993 7.16903 25.044 7.74465 24.9874C8.32027 24.9308 8.85845 24.6764 9.2675 24.2674C9.5005 24.036 9.68522 23.7605 9.81096 23.4571C9.9367 23.1537 10.001 22.8284 10 22.4999ZM9.2675 11.2662C9.61721 10.9166 9.85538 10.4711 9.95191 9.98615C10.0484 9.50118 9.99897 8.99847 9.80977 8.54161C9.62057 8.08475 9.30014 7.69426 8.889 7.41953C8.47786 7.14479 7.99449 6.99815 7.5 6.99815C7.00551 6.99815 6.52213 7.14479 6.111 7.41953C5.69986 7.69426 5.37943 8.08475 5.19023 8.54161C5.00103 8.99847 4.95157 9.50118 5.04809 9.98615C5.14462 10.4711 5.38279 10.9166 5.7325 11.2662C5.96336 11.5005 6.23852 11.6866 6.54195 11.8136C6.84539 11.9406 7.17105 12.006 7.5 12.006C7.82895 12.006 8.15461 11.9406 8.45805 11.8136C8.76148 11.6866 9.03663 11.5005 9.2675 11.2662Z" fill="#9095A1"/>
</svg>
