<svg width="28" height="28" viewBox="0 0 28 28" fill="none" xmlns="http://www.w3.org/2000/svg">
<path d="M21 3C21 2.448 20.552 2 20 2C19.448 2 19 2.448 19 3V5H21V3Z" fill="#00508F"/>
<path d="M9 3C9 2.448 8.552 2 8 2C7.448 2 7 2.448 7 3L7 5H9V3Z" fill="#00508F"/>
<path d="M23 6L5 6C3.343 6 2 7.343 2 9L2 22C2 23.657 3.343 25 5 25L23 25C24.657 25 26 23.657 26 22L26 9C26 7.343 24.657 6 23 6ZM24 22C24 22.552 23.552 23 23 23L5 23C4.448 23 4 22.552 4 22L4 11L24 11L24 22Z" fill="#00508F"/>
<path d="M9.5 13H6.5C6.22386 13 6 13.2239 6 13.5L6 15.5C6 15.7761 6.22386 16 6.5 16H9.5C9.77614 16 10 15.7761 10 15.5V13.5C10 13.2239 9.77614 13 9.5 13Z" fill="#00508F"/>
<path d="M15.5 13H12.5C12.2239 13 12 13.2239 12 13.5V15.5C12 15.7761 12.2239 16 12.5 16H15.5C15.7761 16 16 15.7761 16 15.5V13.5C16 13.2239 15.7761 13 15.5 13Z" fill="#00508F"/>
<path d="M9.5 18H6.5C6.22386 18 6 18.2239 6 18.5L6 20.5C6 20.7761 6.22386 21 6.5 21H9.5C9.77614 21 10 20.7761 10 20.5V18.5C10 18.2239 9.77614 18 9.5 18Z" fill="#00508F"/>
<path d="M15.5 18H12.5C12.2239 18 12 18.2239 12 18.5V20.5C12 20.7761 12.2239 21 12.5 21H15.5C15.7761 21 16 20.7761 16 20.5V18.5C16 18.2239 15.7761 18 15.5 18Z" fill="#00508F"/>
<path d="M21.5 13H18.5C18.2239 13 18 13.2239 18 13.5V15.5C18 15.7761 18.2239 16 18.5 16H21.5C21.7761 16 22 15.7761 22 15.5V13.5C22 13.2239 21.7761 13 21.5 13Z" fill="#00508F"/>
</svg>
