<svg width="32" height="32" viewBox="0 0 32 32" fill="none" xmlns="http://www.w3.org/2000/svg">
<path d="M19.7543 18.6345L17.9287 20.9169C15.1012 19.255 12.7449 16.8987 11.0831 14.0713L13.3655 12.2457C13.6329 12.0315 13.8218 11.7348 13.9029 11.402C13.9839 11.0691 13.9525 10.7188 13.8135 10.4057L11.7335 5.72168C11.5843 5.38566 11.3207 5.11353 10.9895 4.95382C10.6584 4.79411 10.2813 4.75721 9.92548 4.84968L5.96548 5.87688C5.59591 5.97337 5.27458 6.2021 5.0624 6.5197C4.85022 6.83731 4.76194 7.22173 4.81428 7.60008C5.5092 12.5487 7.79631 17.1366 11.3298 20.6701C14.8634 24.2037 19.4513 26.4908 24.3999 27.1857C24.7781 27.2378 25.1623 27.1494 25.4798 26.9373C25.7972 26.7251 26.0258 26.4039 26.1223 26.0345L27.1495 22.0745C27.2416 21.719 27.2046 21.3423 27.0451 21.0116C26.8855 20.6808 26.6138 20.4173 26.2783 20.2681L21.5943 18.1881C21.2813 18.0489 20.9311 18.0172 20.5983 18.098C20.2654 18.1787 19.9687 18.3674 19.7543 18.6345Z" stroke="#6F7787" stroke-width="1.92" stroke-miterlimit="10" stroke-linecap="square"/>
</svg>
