<svg width="16" height="16" viewBox="0 0 16 16" fill="none" xmlns="http://www.w3.org/2000/svg">
<path d="M9.6001 2L9.6001 5.2L12.8001 5.2" stroke="white" stroke-width="0.96" stroke-miterlimit="10"/>
<path d="M12.8002 6.8V5.2L9.6002 2L3.2002 2L3.2002 6.8" stroke="white" stroke-width="0.96" stroke-miterlimit="10" stroke-linecap="square"/>
<path d="M3.2002 12.4L3.2002 14L12.8002 14V12.4" stroke="white" stroke-width="0.96" stroke-miterlimit="10" stroke-linecap="square"/>
<path d="M6.85722 9.24203C6.85722 9.49722 6.78202 9.69443 6.63162 9.83363C6.48122 9.97283 6.26722 10.042 5.99002 10.042H5.81642V10.8H5.19922L5.19922 8.51562H5.99002C6.27842 8.51562 6.49522 8.57842 6.64002 8.70482C6.78482 8.83122 6.85722 9.00963 6.85722 9.24203ZM5.81642 9.53922H5.92882C6.02162 9.53922 6.09522 9.51323 6.15002 9.46123C6.20482 9.40923 6.23202 9.33723 6.23202 9.24563C6.23202 9.09123 6.14682 9.01442 5.97562 9.01442H5.81642L5.81642 9.53922Z" fill="white"/>
<path d="M9.1599 9.60923C9.1599 9.99043 9.0551 10.2844 8.8451 10.4904C8.6351 10.6964 8.3403 10.8 7.9599 10.8H7.2207L7.2207 8.51562H8.0115C8.3783 8.51562 8.6615 8.60923 8.8607 8.79683C9.0599 8.98443 9.1599 9.25523 9.1599 9.60923ZM8.5195 9.63122C8.5195 9.42202 8.4779 9.26683 8.3951 9.16563C8.3123 9.06442 8.1867 9.01403 8.0179 9.01403H7.8383L7.8383 10.2936H7.9759C8.1635 10.2936 8.3007 10.2392 8.3883 10.1304C8.4759 10.0216 8.5195 9.85522 8.5195 9.63122Z" fill="white"/>
<path d="M10.1773 10.8H9.56934L9.56934 8.51562H10.9193V9.01083H10.1773V9.44683H10.8617V9.94203H10.1773L10.1773 10.8Z" fill="white"/>
<path d="M14 6.79999L2 6.79999L2 12.4L14 12.4L14 6.79999Z" stroke="white" stroke-width="0.96" stroke-miterlimit="10" stroke-linecap="square"/>
</svg>
