<svg width="24" height="24" viewBox="0 0 24 24" fill="none" xmlns="http://www.w3.org/2000/svg">
<path d="M14.8354 13.8754L13.0003 15.6857C12.0433 15.1086 11.1542 14.4258 10.35 13.6499C9.57533 12.8443 8.89257 11.9552 8.31426 10.9988L10.1228 9.16365C10.2324 9.05242 10.3063 8.91112 10.3353 8.75772C10.3643 8.60432 10.3471 8.44577 10.2857 8.30222L8.39998 3.9068C8.32548 3.73348 8.1912 3.5927 8.0216 3.5101C7.85199 3.4275 7.65836 3.40858 7.47598 3.4568L4.01826 4.37137C3.84559 4.41613 3.69322 4.51818 3.5861 4.66081C3.47897 4.80344 3.42342 4.9782 3.42855 5.15651C3.64856 9.17803 5.32065 12.983 8.13426 15.8648C11.0166 18.6793 14.8226 20.3517 18.8451 20.5714C19.0236 20.5774 19.1988 20.5223 19.3417 20.4152C19.4846 20.3081 19.5867 20.1555 19.6311 19.9825L20.5448 16.5231C20.5933 16.3408 20.5746 16.1472 20.4921 15.9775C20.4097 15.8079 20.269 15.6736 20.0957 15.5991L15.6994 13.7142C15.5557 13.652 15.3967 13.634 15.2428 13.6627C15.0888 13.6915 14.947 13.7655 14.8354 13.8754Z" stroke="#171A1F" stroke-width="2.05714" stroke-miterlimit="10" stroke-linecap="square"/>
</svg>
