<svg width="12" height="12" viewBox="0 0 12 12" fill="none" xmlns="http://www.w3.org/2000/svg">
<g clip-path="url(#clip0_101_311)">
<path d="M9.99997 0.66678L0.666667 10.0001C0.298477 10.3683 0.298477 10.9652 0.666667 11.3334L0.666668 11.3334C1.03486 11.7016 1.63181 11.7016 2 11.3334L11.3333 2.00011C11.7015 1.63192 11.7015 1.03497 11.3333 0.66678C10.9651 0.29859 10.3682 0.29859 9.99997 0.66678Z" fill="#9095A1"/>
<path d="M9.99967 6.00008L5.99967 10.0001C5.63148 10.3683 5.63148 10.9652 5.99967 11.3334L5.99968 11.3334C6.36787 11.7016 6.96482 11.7016 7.33301 11.3334L11.333 7.33342C11.7012 6.96523 11.7012 6.36827 11.333 6.00008C10.9648 5.63189 10.3679 5.63189 9.99967 6.00008Z" fill="#9095A1"/>
</g>
<defs>
<clipPath id="clip0_101_311">
<rect width="12" height="12" fill="white"/>
</clipPath>
</defs>
</svg>
