<svg width="28" height="28" viewBox="0 0 28 28" fill="none" xmlns="http://www.w3.org/2000/svg">
<path d="M10 24L20.229 24C20.6568 24.0001 21.0734 23.863 21.4175 23.6089C21.7616 23.3547 22.0152 22.9969 22.141 22.588L24.91 13.588C25.002 13.2891 25.0225 12.9726 24.97 12.6643C24.9175 12.3559 24.7934 12.0641 24.6076 11.8124C24.4218 11.5607 24.1796 11.3561 23.9004 11.215C23.6212 11.0739 23.3128 11.0003 23 11L16 11V7.00005C16 4.62705 14.749 3.50605 13.236 3.14005C13.0884 3.10538 12.9348 3.10453 12.7868 3.13756C12.6389 3.1706 12.5002 3.23666 12.3814 3.33081C12.2625 3.42496 12.1665 3.54476 12.1004 3.68126C12.0344 3.81775 12.0001 3.96741 12 4.11905V8.00005L7 14" stroke="#00508F" stroke-width="2.4" stroke-miterlimit="10"/>
<path d="M7 12L3 12L3 24H7L7 12Z" stroke="#00508F" stroke-width="2.4" stroke-miterlimit="10" stroke-linecap="square"/>
</svg>
