<svg width="16" height="16" viewBox="0 0 16 16" fill="none" xmlns="http://www.w3.org/2000/svg">
<path d="M12.4 6.4C12.4 10 8.00001 14 8.00001 14C8.00001 14 3.60001 10 3.60001 6.4C3.60001 5.23305 4.06358 4.11389 4.88874 3.28873C5.7139 2.46357 6.83305 2 8.00001 2C9.16696 2 10.2861 2.46357 11.1113 3.28873C11.9364 4.11389 12.4 5.23305 12.4 6.4Z" stroke="#6F7787" stroke-width="0.8" stroke-linecap="round" stroke-linejoin="round"/>
<path d="M8 8.40002C9.10457 8.40002 10 7.50459 10 6.40002C10 5.29545 9.10457 4.40002 8 4.40002C6.89543 4.40002 6 5.29545 6 6.40002C6 7.50459 6.89543 8.40002 8 8.40002Z" stroke="#6F7787" stroke-width="0.8" stroke-linecap="round" stroke-linejoin="round"/>
</svg>
