<svg width="24" height="24" viewBox="0 0 24 24" fill="none" xmlns="http://www.w3.org/2000/svg">
<path d="M11.9999 6.75098L4.28564 13.063L4.28564 20.5715C4.28564 21.0447 4.66964 21.4287 5.14279 21.4287H10.2856V16.7144C10.2856 16.4778 10.4776 16.2858 10.7142 16.2858H13.2856C13.5222 16.2858 13.7142 16.4778 13.7142 16.7144L13.7142 21.4287L18.8571 21.4287C19.3302 21.4287 19.7142 21.0447 19.7142 20.5715L19.7142 13.063L11.9999 6.75098Z" fill="white"/>
<path d="M21.4286 11.9998C21.2375 11.9998 21.0455 11.9364 20.886 11.8061L12 4.5358L3.11404 11.8061C2.74718 12.1052 2.20804 12.0521 1.90804 11.6852C1.60804 11.3184 1.66204 10.7784 2.0289 10.4792L11.4575 2.76494C11.7729 2.50609 12.2272 2.50609 12.5435 2.76494L21.972 10.4792C22.338 10.7792 22.392 11.3184 22.0929 11.6852C21.9232 11.8927 21.6763 11.9998 21.4286 11.9998Z" fill="white"/>
</svg>
