<svg width="24" height="24" viewBox="0 0 24 24" fill="none" xmlns="http://www.w3.org/2000/svg">
<path d="M2.57153 12L12.0001 12" stroke="white" stroke-width="2.05714" stroke-miterlimit="10"/>
<path d="M9.42847 9.42847L11.9999 11.9999L9.42847 14.5713" stroke="white" stroke-width="2.05714" stroke-miterlimit="10" stroke-linecap="square"/>
<path d="M5.14282 15.4287L5.14282 19.7144C5.14282 20.169 5.32343 20.6051 5.64492 20.9266C5.96642 21.2481 6.40245 21.4287 6.85711 21.4287L17.1428 21.4287C17.5975 21.4287 18.0335 21.2481 18.355 20.9266C18.6765 20.6051 18.8571 20.169 18.8571 19.7144L18.8571 4.28582C18.8571 3.83116 18.6765 3.39513 18.355 3.07364C18.0335 2.75214 17.5975 2.57153 17.1428 2.57153L6.85711 2.57153C6.40245 2.57153 5.96642 2.75214 5.64492 3.07364C5.32343 3.39513 5.14282 3.83116 5.14282 4.28582L5.14282 8.57153" stroke="white" stroke-width="2.05714" stroke-miterlimit="10" stroke-linecap="square"/>
</svg>
