<svg width="30" height="30" viewBox="0 0 30 30" fill="none" xmlns="http://www.w3.org/2000/svg">
<path d="M16.0715 8.57138V5.11388C16.0715 4.61006 15.8714 4.12688 15.5151 3.77063C15.1589 3.41437 14.6757 3.21423 14.1719 3.21423L5.114 3.21423C4.61018 3.21423 4.127 3.41437 3.77075 3.77063C3.4145 4.12688 3.21436 4.61006 3.21436 5.11388L3.21436 13.1003C3.21436 13.6041 3.4145 14.0873 3.77075 14.4436C4.127 14.7998 4.61018 14.9999 5.114 14.9999H5.35721V17.1428L8.5715 14.9999H10.7144" stroke="#323743" stroke-width="2.57143" stroke-miterlimit="10" stroke-linecap="square"/>
<path d="M24.9494 11.7858L15.7651 11.7858C15.2614 11.8034 14.7852 12.02 14.441 12.3882C14.0967 12.7563 13.9125 13.2459 13.9287 13.7497L13.9287 21.6076C13.9125 22.1113 14.0967 22.6009 14.441 22.9691C14.7852 23.3372 15.2614 23.5539 15.7651 23.5715H21.4287L24.643 25.7143V23.5715L24.9494 23.5715C25.4531 23.5539 25.9293 23.3372 26.2736 22.9691C26.6178 22.6009 26.8021 22.1113 26.7859 21.6076V13.7497C26.8021 13.2459 26.6178 12.7563 26.2736 12.3882C25.9293 12.02 25.4531 11.8034 24.9494 11.7858Z" stroke="#323743" stroke-width="2.57143" stroke-miterlimit="10" stroke-linecap="square"/>
<path d="M13.1648 7.6211C12.8348 7.5911 12.5423 7.5761 12.0934 7.5761C11.987 8.07905 11.8155 8.566 11.5834 9.02467C11.3613 9.46497 11.0813 9.87359 10.7509 10.2397C11.5425 10.7031 12.4152 11.0114 13.3223 11.1482C13.0011 11.5646 12.7503 12.0308 12.5798 12.5282C11.5578 12.2398 10.593 11.7777 9.72765 11.1622C8.8189 11.7907 7.80882 12.2582 6.74158 12.5443C6.5805 12.0628 6.33647 11.6132 6.02051 11.2157C6.95889 11.0456 7.86031 10.7127 8.68408 10.2322C8.30527 9.81779 7.9812 9.35653 7.71979 8.85967C7.50283 8.45036 7.32938 8.01943 7.20229 7.57395C6.75979 7.57395 6.50372 7.58895 6.13086 7.61895L6.13086 6.26252C6.49238 6.30138 6.85586 6.31891 7.21944 6.31502L8.87158 6.31502V5.86502C8.8731 5.70887 8.85802 5.55299 8.82658 5.40002H10.3352C10.305 5.55065 10.2899 5.70391 10.2902 5.85752V6.31502L12.0762 6.31502C12.4398 6.31908 12.8033 6.30155 13.1648 6.26252V7.6211ZM8.63908 7.5761C8.83298 8.261 9.19418 8.88693 9.69015 9.39752C10.1467 8.87607 10.4686 8.2507 10.6277 7.5761L8.63908 7.5761Z" fill="#323743"/>
<path d="M21.8241 20.8404L21.4844 19.5547H19.2484L18.9001 20.8404H16.8569L19.1026 13.9286L21.5841 13.9286L23.8576 20.8404H21.8241ZM21.0987 18.0247L20.8019 16.8954C20.7305 16.6439 20.6466 16.3189 20.5501 15.9204C20.4537 15.5218 20.3887 15.2361 20.3551 15.0632C20.3262 15.2229 20.2705 15.4918 20.188 15.8539C20.1055 16.2161 19.9201 16.9447 19.6341 18.0247H21.0987Z" fill="#323743"/>
</svg>
