<svg width="16" height="16" viewBox="0 0 16 16" fill="none" xmlns="http://www.w3.org/2000/svg">
<path d="M6 6.7998L10 6.7998" stroke="#00508F" stroke-width="0.8" stroke-miterlimit="10" stroke-linecap="round" stroke-linejoin="round"/>
<path d="M6 9.2002L10 9.2002" stroke="#00508F" stroke-width="0.8" stroke-miterlimit="10" stroke-linecap="round" stroke-linejoin="round"/>
<path d="M12.4 8.0001C12.4 7.0329 13.0872 6.2257 14 6.0401V4.4001C14 3.9585 13.6416 3.6001 13.2 3.6001L2.8 3.6001C2.3584 3.6001 2 3.9585 2 4.4001L2 6.0401C2.9128 6.2257 3.6 7.0321 3.6 8.0001C3.6 8.9673 2.9128 9.7745 2 9.9601L2 11.6001C2 12.0417 2.3584 12.4001 2.8 12.4001L13.2 12.4001C13.6416 12.4001 14 12.0417 14 11.6001V9.9601C13.0872 9.7745 12.4 8.9673 12.4 8.0001Z" stroke="#00508F" stroke-width="0.8" stroke-miterlimit="10" stroke-linecap="round" stroke-linejoin="round"/>
</svg>
