<svg width="24" height="24" viewBox="0 0 24 24" fill="none" xmlns="http://www.w3.org/2000/svg">
<path d="M9.375 5.25L3.75 5.25C3.35218 5.25 2.97064 5.40804 2.68934 5.68934C2.40804 5.97064 2.25 6.35218 2.25 6.75L2.25 12.75C2.25 13.1478 2.40804 13.5294 2.68934 13.8107C2.97064 14.092 3.35218 14.25 3.75 14.25L9.375 14.25L9.375 15C9.375 15.7956 9.05893 16.5587 8.49632 17.1213C7.93371 17.6839 7.17065 18 6.375 18C6.17609 18 5.98532 18.079 5.84467 18.2197C5.70402 18.3603 5.625 18.5511 5.625 18.75C5.625 18.9489 5.70402 19.1397 5.84467 19.2803C5.98532 19.421 6.17609 19.5 6.375 19.5C7.56809 19.4988 8.71197 19.0243 9.55561 18.1806C10.3993 17.337 10.8738 16.1931 10.875 15L10.875 6.75C10.875 6.35218 10.717 5.97064 10.4357 5.68934C10.1544 5.40804 9.77282 5.25 9.375 5.25ZM9.375 12.75L3.75 12.75L3.75 6.75L9.375 6.75L9.375 12.75ZM20.25 5.25L14.625 5.25C14.2272 5.25 13.8456 5.40804 13.5643 5.68934C13.283 5.97064 13.125 6.35218 13.125 6.75L13.125 12.75C13.125 13.1478 13.283 13.5294 13.5643 13.8107C13.8456 14.092 14.2272 14.25 14.625 14.25H20.25V15C20.25 15.7956 19.9339 16.5587 19.3713 17.1213C18.8087 17.6839 18.0456 18 17.25 18C17.0511 18 16.8603 18.079 16.7197 18.2197C16.579 18.3603 16.5 18.5511 16.5 18.75C16.5 18.9489 16.579 19.1397 16.7197 19.2803C16.8603 19.421 17.0511 19.5 17.25 19.5C18.4431 19.4988 19.587 19.0243 20.4306 18.1806C21.2743 17.337 21.7488 16.1931 21.75 15L21.75 6.75C21.75 6.35218 21.592 5.97064 21.3107 5.68934C21.0294 5.40804 20.6478 5.25 20.25 5.25ZM20.25 12.75H14.625L14.625 6.75L20.25 6.75L20.25 12.75Z" fill="#9095A1"/>
</svg>
