<svg width="24" height="24" viewBox="0 0 24 24" fill="none" xmlns="http://www.w3.org/2000/svg">
<path d="M12.0001 17.1428C14.367 17.1428 16.2858 15.2241 16.2858 12.8571C16.2858 10.4902 14.367 8.57141 12.0001 8.57141C9.63313 8.57141 7.71436 10.4902 7.71436 12.8571C7.71436 15.2241 9.63313 17.1428 12.0001 17.1428Z" stroke="white" stroke-width="2.05714" stroke-miterlimit="10" stroke-linecap="square"/>
<path d="M4.28564 3.42859L5.99993 3.42859" stroke="white" stroke-width="2.05714" stroke-miterlimit="10" stroke-linecap="square"/>
<path d="M19.7141 20.5714L4.28557 20.5714C3.83092 20.5714 3.39488 20.3908 3.07339 20.0693C2.7519 19.7479 2.57129 19.3118 2.57129 18.8572L2.57129 7.7143C2.57129 7.25965 2.7519 6.82361 3.07339 6.50212C3.39488 6.18063 3.83092 6.00002 4.28557 6.00002L7.71415 6.00002L9.42843 3.42859L14.5713 3.42859L16.2856 6.00002H19.7141C20.1688 6.00002 20.6048 6.18063 20.9263 6.50212C21.2478 6.82361 21.4284 7.25965 21.4284 7.7143L21.4284 18.8572C21.4284 19.3118 21.2478 19.7479 20.9263 20.0693C20.6048 20.3908 20.1688 20.5714 19.7141 20.5714Z" stroke="white" stroke-width="2.05714" stroke-miterlimit="10" stroke-linecap="square"/>
<path d="M5.14279 9.42852C5.61617 9.42852 5.99993 9.04476 5.99993 8.57138C5.99993 8.09799 5.61617 7.71423 5.14279 7.71423C4.6694 7.71423 4.28564 8.09799 4.28564 8.57138C4.28564 9.04476 4.6694 9.42852 5.14279 9.42852Z" fill="white"/>
</svg>
