<svg width="24" height="24" viewBox="0 0 24 24" fill="none" xmlns="http://www.w3.org/2000/svg">
<path d="M21.4199 8.16C21.4199 8.16 21.2399 6.84 20.6399 6.24C19.9199 5.46 19.0799 5.46 18.7199 5.4C16.0199 5.22 11.9999 5.22 11.9999 5.22C11.9999 5.22 7.9799 5.22 5.2799 5.4C4.9199 5.46 4.0799 5.46 3.3599 6.24C2.7599 6.84 2.5799 8.16 2.5799 8.16C2.5799 8.16 2.3999 9.72 2.3999 11.28L2.3999 12.72C2.3999 14.28 2.5799 15.84 2.5799 15.84C2.5799 15.84 2.7599 17.16 3.3599 17.76C4.0799 18.54 5.0399 18.48 5.4599 18.6C7.0199 18.72 11.9999 18.78 11.9999 18.78C11.9999 18.78 16.0199 18.78 18.7199 18.6C19.0799 18.54 19.9199 18.54 20.6399 17.76C21.2399 17.16 21.4199 15.84 21.4199 15.84C21.4199 15.84 21.5999 14.28 21.5999 12.72L21.5999 11.28C21.5999 9.72 21.4199 8.16 21.4199 8.16ZM10.0199 14.52L10.0199 9.12L15.1799 11.82L10.0199 14.52Z" fill="#E82E2E"/>
</svg>
