<svg width="42" height="42" viewBox="0 0 42 42" fill="none" xmlns="http://www.w3.org/2000/svg">
<path d="M21.0062 18.9001C22.7459 18.9001 24.1562 17.4898 24.1562 15.7501C24.1562 14.0104 22.7459 12.6001 21.0062 12.6001C19.2665 12.6001 17.8562 14.0104 17.8562 15.7501C17.8562 17.4898 19.2665 18.9001 21.0062 18.9001Z" stroke="#00508F" stroke-width="2.52" stroke-miterlimit="10" stroke-linecap="square"/>
<path d="M21.0062 18.9001C22.7459 18.9001 24.1562 17.4898 24.1562 15.7501C24.1562 14.0104 22.7459 12.6001 21.0062 12.6001C19.2665 12.6001 17.8562 14.0104 17.8562 15.7501C17.8562 17.4898 19.2665 18.9001 21.0062 18.9001Z" fill="#00508F"/>
<path d="M36.3206 19.0996C36.5987 18.7424 36.7497 18.3027 36.7497 17.8501C36.7497 17.3975 36.5987 16.9577 36.3206 16.6006C34.1691 13.816 28.3773 7.3501 21.0063 7.3501C13.5366 7.3501 7.79943 13.8202 5.67738 16.6027C5.40323 16.96 5.25533 17.3981 5.25685 17.8484C5.25837 18.2987 5.40922 18.7358 5.68578 19.0912C7.62303 21.5986 12.5402 27.1226 18.9 28.1747" stroke="#00508F" stroke-width="2.52" stroke-miterlimit="10" stroke-linecap="square"/>
<path d="M29.3401 16.8C29.3844 16.4518 29.4065 16.101 29.4062 15.75C29.406 14.1564 28.9525 12.5957 28.0985 11.2501C27.2446 9.90457 26.0256 8.82969 24.5837 8.15098C23.1418 7.47226 21.5366 7.21771 19.9555 7.41705C18.3744 7.61639 16.8826 8.26139 15.6543 9.27675C14.426 10.2921 13.5119 11.6359 13.0186 13.1513C12.5254 14.6667 12.4734 16.2911 12.8688 17.8349C13.2641 19.3788 14.0905 20.7783 15.2514 21.8701C16.4122 22.9619 17.8598 23.7009 19.4249 24.0009" stroke="#00508F" stroke-width="2.52" stroke-miterlimit="10" stroke-linecap="square"/>
<path d="M29.4 34.6502C33.4593 34.6502 36.75 31.3595 36.75 27.3002C36.75 23.2409 33.4593 19.9502 29.4 19.9502C25.3408 19.9502 22.05 23.2409 22.05 27.3002C22.05 31.3595 25.3408 34.6502 29.4 34.6502Z" stroke="#00508F" stroke-width="2.52" stroke-miterlimit="10" stroke-linecap="square"/>
<path d="M29.3999 24.1499V30.4499" stroke="#00508F" stroke-width="2.52" stroke-miterlimit="10" stroke-linecap="square"/>
<path d="M26.25 27.2998H32.55" stroke="#00508F" stroke-width="2.52" stroke-miterlimit="10" stroke-linecap="square"/>
</svg>
